<mxfile host="app.diagrams.net" modified="2024-03-22T12:03:51.281Z" agent="Mozilla/5.0 (Windows NT 10.0; Win64; x64) AppleWebKit/537.36 (KHTML, like Gecko) Chrome/122.0.0.0 Safari/537.36" etag="hzBsoMHw9nKdP70lOfWy" version="24.0.7" type="device">
  <diagram name="Trang-1" id="BeXrtGf_jVVnuz_7ZJmJ">
    <mxGraphModel dx="1956" dy="839" grid="1" gridSize="10" guides="1" tooltips="1" connect="1" arrows="1" fold="1" page="1" pageScale="1" pageWidth="827" pageHeight="1169" math="0" shadow="0">
      <root>
        <mxCell id="0" />
        <mxCell id="1" parent="0" />
        <mxCell id="Gl7qeEk84zV5jjlZmkLD-1" value="Hóa đơn" style="ellipse;whiteSpace=wrap;html=1;" vertex="1" parent="1">
          <mxGeometry x="10" y="20" width="120" height="80" as="geometry" />
        </mxCell>
        <mxCell id="Gl7qeEk84zV5jjlZmkLD-2" value="QUẢN LÝ NHẬP HÀNG" style="whiteSpace=wrap;html=1;aspect=fixed;" vertex="1" parent="1">
          <mxGeometry x="280" y="20" width="80" height="80" as="geometry" />
        </mxCell>
        <mxCell id="Gl7qeEk84zV5jjlZmkLD-4" value="Danh mục sản phẩm" style="ellipse;whiteSpace=wrap;html=1;" vertex="1" parent="1">
          <mxGeometry x="530" y="130" width="120" height="80" as="geometry" />
        </mxCell>
        <mxCell id="Gl7qeEk84zV5jjlZmkLD-5" value="Khách hàng" style="whiteSpace=wrap;html=1;aspect=fixed;" vertex="1" parent="1">
          <mxGeometry x="40" y="300" width="80" height="80" as="geometry" />
        </mxCell>
        <mxCell id="Gl7qeEk84zV5jjlZmkLD-6" value="Giỏ hàng" style="ellipse;whiteSpace=wrap;html=1;" vertex="1" parent="1">
          <mxGeometry x="170" y="220" width="120" height="80" as="geometry" />
        </mxCell>
        <mxCell id="Gl7qeEk84zV5jjlZmkLD-7" value="QUẢN LÝ BÁN HÀNG" style="whiteSpace=wrap;html=1;aspect=fixed;" vertex="1" parent="1">
          <mxGeometry x="290" y="430" width="80" height="80" as="geometry" />
        </mxCell>
        <mxCell id="Gl7qeEk84zV5jjlZmkLD-8" value="BÁO CÁO THỐNG KÊ" style="whiteSpace=wrap;html=1;aspect=fixed;" vertex="1" parent="1">
          <mxGeometry x="320" y="560" width="80" height="80" as="geometry" />
        </mxCell>
        <mxCell id="Gl7qeEk84zV5jjlZmkLD-9" value="QUẢN LÝ NGƯỜI DÙNG" style="whiteSpace=wrap;html=1;aspect=fixed;" vertex="1" parent="1">
          <mxGeometry x="310" y="680" width="80" height="80" as="geometry" />
        </mxCell>
        <mxCell id="Gl7qeEk84zV5jjlZmkLD-10" value="Hóa đơn" style="ellipse;whiteSpace=wrap;html=1;" vertex="1" parent="1">
          <mxGeometry x="100" y="490" width="120" height="80" as="geometry" />
        </mxCell>
        <mxCell id="Gl7qeEk84zV5jjlZmkLD-11" value="Tài khoản" style="ellipse;whiteSpace=wrap;html=1;" vertex="1" parent="1">
          <mxGeometry x="620" y="680" width="120" height="80" as="geometry" />
        </mxCell>
        <mxCell id="Gl7qeEk84zV5jjlZmkLD-12" value="Nhà quản trị" style="whiteSpace=wrap;html=1;aspect=fixed;" vertex="1" parent="1">
          <mxGeometry x="620" y="420" width="80" height="80" as="geometry" />
        </mxCell>
        <mxCell id="Gl7qeEk84zV5jjlZmkLD-13" value="Đơn đặt hàng" style="ellipse;whiteSpace=wrap;html=1;" vertex="1" parent="1">
          <mxGeometry x="450" y="310" width="120" height="80" as="geometry" />
        </mxCell>
        <mxCell id="Gl7qeEk84zV5jjlZmkLD-14" value="" style="endArrow=classic;html=1;rounded=0;exitX=0;exitY=0.5;exitDx=0;exitDy=0;entryX=1;entryY=0.5;entryDx=0;entryDy=0;" edge="1" parent="1" source="Gl7qeEk84zV5jjlZmkLD-2" target="Gl7qeEk84zV5jjlZmkLD-1">
          <mxGeometry width="50" height="50" relative="1" as="geometry">
            <mxPoint x="120" y="200" as="sourcePoint" />
            <mxPoint x="170" y="150" as="targetPoint" />
          </mxGeometry>
        </mxCell>
        <mxCell id="Gl7qeEk84zV5jjlZmkLD-15" value="" style="endArrow=classic;html=1;rounded=0;exitX=1;exitY=0.75;exitDx=0;exitDy=0;entryX=1;entryY=0.25;entryDx=0;entryDy=0;" edge="1" parent="1" source="Gl7qeEk84zV5jjlZmkLD-2" target="Gl7qeEk84zV5jjlZmkLD-12">
          <mxGeometry width="50" height="50" relative="1" as="geometry">
            <mxPoint x="350" y="180" as="sourcePoint" />
            <mxPoint x="400" y="130" as="targetPoint" />
            <Array as="points">
              <mxPoint x="760" y="80" />
              <mxPoint x="760" y="440" />
            </Array>
          </mxGeometry>
        </mxCell>
        <mxCell id="Gl7qeEk84zV5jjlZmkLD-16" value="" style="endArrow=classic;html=1;rounded=0;exitX=0.5;exitY=1;exitDx=0;exitDy=0;entryX=0;entryY=0.25;entryDx=0;entryDy=0;" edge="1" parent="1" source="Gl7qeEk84zV5jjlZmkLD-5" target="Gl7qeEk84zV5jjlZmkLD-9">
          <mxGeometry width="50" height="50" relative="1" as="geometry">
            <mxPoint x="370" y="420" as="sourcePoint" />
            <mxPoint x="420" y="370" as="targetPoint" />
            <Array as="points">
              <mxPoint x="80" y="710" />
            </Array>
          </mxGeometry>
        </mxCell>
        <mxCell id="Gl7qeEk84zV5jjlZmkLD-17" value="" style="endArrow=classic;html=1;rounded=0;exitX=1;exitY=0.25;exitDx=0;exitDy=0;entryX=0;entryY=0;entryDx=0;entryDy=0;" edge="1" parent="1" source="Gl7qeEk84zV5jjlZmkLD-9" target="Gl7qeEk84zV5jjlZmkLD-11">
          <mxGeometry width="50" height="50" relative="1" as="geometry">
            <mxPoint x="370" y="420" as="sourcePoint" />
            <mxPoint x="420" y="370" as="targetPoint" />
            <Array as="points" />
          </mxGeometry>
        </mxCell>
        <mxCell id="Gl7qeEk84zV5jjlZmkLD-18" value="" style="endArrow=classic;html=1;rounded=0;exitX=0;exitY=0.5;exitDx=0;exitDy=0;entryX=1;entryY=0.5;entryDx=0;entryDy=0;" edge="1" parent="1" source="Gl7qeEk84zV5jjlZmkLD-11" target="Gl7qeEk84zV5jjlZmkLD-9">
          <mxGeometry width="50" height="50" relative="1" as="geometry">
            <mxPoint x="520" y="690" as="sourcePoint" />
            <mxPoint x="420" y="370" as="targetPoint" />
          </mxGeometry>
        </mxCell>
        <mxCell id="Gl7qeEk84zV5jjlZmkLD-19" value="" style="endArrow=classic;html=1;rounded=0;exitX=0.5;exitY=1;exitDx=0;exitDy=0;entryX=0.5;entryY=1;entryDx=0;entryDy=0;" edge="1" parent="1" source="Gl7qeEk84zV5jjlZmkLD-9" target="Gl7qeEk84zV5jjlZmkLD-11">
          <mxGeometry width="50" height="50" relative="1" as="geometry">
            <mxPoint x="370" y="420" as="sourcePoint" />
            <mxPoint x="420" y="370" as="targetPoint" />
            <Array as="points">
              <mxPoint x="350" y="790" />
              <mxPoint x="680" y="790" />
            </Array>
          </mxGeometry>
        </mxCell>
        <mxCell id="Gl7qeEk84zV5jjlZmkLD-20" value="" style="endArrow=classic;html=1;rounded=0;exitX=0;exitY=0.75;exitDx=0;exitDy=0;entryX=0.25;entryY=1;entryDx=0;entryDy=0;" edge="1" parent="1" source="Gl7qeEk84zV5jjlZmkLD-9" target="Gl7qeEk84zV5jjlZmkLD-5">
          <mxGeometry width="50" height="50" relative="1" as="geometry">
            <mxPoint x="370" y="420" as="sourcePoint" />
            <mxPoint x="420" y="370" as="targetPoint" />
            <Array as="points">
              <mxPoint x="60" y="750" />
            </Array>
          </mxGeometry>
        </mxCell>
        <mxCell id="Gl7qeEk84zV5jjlZmkLD-21" value="" style="endArrow=classic;html=1;rounded=0;exitX=0.663;exitY=1.013;exitDx=0;exitDy=0;entryX=0.5;entryY=0;entryDx=0;entryDy=0;exitPerimeter=0;" edge="1" parent="1" source="Gl7qeEk84zV5jjlZmkLD-12" target="Gl7qeEk84zV5jjlZmkLD-11">
          <mxGeometry width="50" height="50" relative="1" as="geometry">
            <mxPoint x="370" y="420" as="sourcePoint" />
            <mxPoint x="420" y="370" as="targetPoint" />
          </mxGeometry>
        </mxCell>
        <mxCell id="Gl7qeEk84zV5jjlZmkLD-22" value="" style="endArrow=classic;html=1;rounded=0;exitX=0.75;exitY=0;exitDx=0;exitDy=0;entryX=0;entryY=0.5;entryDx=0;entryDy=0;" edge="1" parent="1" source="Gl7qeEk84zV5jjlZmkLD-7" target="Gl7qeEk84zV5jjlZmkLD-13">
          <mxGeometry width="50" height="50" relative="1" as="geometry">
            <mxPoint x="370" y="420" as="sourcePoint" />
            <mxPoint x="420" y="370" as="targetPoint" />
            <Array as="points">
              <mxPoint x="360" y="350" />
            </Array>
          </mxGeometry>
        </mxCell>
        <mxCell id="Gl7qeEk84zV5jjlZmkLD-23" value="" style="endArrow=classic;html=1;rounded=0;exitX=0.5;exitY=1;exitDx=0;exitDy=0;entryX=0;entryY=0.25;entryDx=0;entryDy=0;" edge="1" parent="1" source="Gl7qeEk84zV5jjlZmkLD-10" target="Gl7qeEk84zV5jjlZmkLD-8">
          <mxGeometry width="50" height="50" relative="1" as="geometry">
            <mxPoint x="370" y="420" as="sourcePoint" />
            <mxPoint x="420" y="370" as="targetPoint" />
            <Array as="points">
              <mxPoint x="160" y="590" />
            </Array>
          </mxGeometry>
        </mxCell>
        <mxCell id="Gl7qeEk84zV5jjlZmkLD-24" value="" style="endArrow=classic;startArrow=classic;html=1;rounded=0;exitX=0;exitY=0.75;exitDx=0;exitDy=0;entryX=0;entryY=0.5;entryDx=0;entryDy=0;" edge="1" parent="1" source="Gl7qeEk84zV5jjlZmkLD-8" target="Gl7qeEk84zV5jjlZmkLD-6">
          <mxGeometry width="50" height="50" relative="1" as="geometry">
            <mxPoint x="370" y="420" as="sourcePoint" />
            <mxPoint x="420" y="370" as="targetPoint" />
            <Array as="points">
              <mxPoint x="10" y="630" />
              <mxPoint x="10" y="260" />
            </Array>
          </mxGeometry>
        </mxCell>
        <mxCell id="Gl7qeEk84zV5jjlZmkLD-25" value="" style="endArrow=classic;html=1;rounded=0;entryX=0.75;entryY=1;entryDx=0;entryDy=0;exitX=0;exitY=0.75;exitDx=0;exitDy=0;" edge="1" parent="1" source="Gl7qeEk84zV5jjlZmkLD-7" target="Gl7qeEk84zV5jjlZmkLD-5">
          <mxGeometry width="50" height="50" relative="1" as="geometry">
            <mxPoint x="310" y="470" as="sourcePoint" />
            <mxPoint x="420" y="370" as="targetPoint" />
            <Array as="points">
              <mxPoint x="100" y="460" />
            </Array>
          </mxGeometry>
        </mxCell>
        <mxCell id="Gl7qeEk84zV5jjlZmkLD-26" value="" style="endArrow=classic;html=1;rounded=0;exitX=0.5;exitY=0;exitDx=0;exitDy=0;entryX=0.5;entryY=0;entryDx=0;entryDy=0;" edge="1" parent="1" source="Gl7qeEk84zV5jjlZmkLD-7" target="Gl7qeEk84zV5jjlZmkLD-6">
          <mxGeometry width="50" height="50" relative="1" as="geometry">
            <mxPoint x="370" y="420" as="sourcePoint" />
            <mxPoint x="420" y="370" as="targetPoint" />
            <Array as="points">
              <mxPoint x="370" y="180" />
              <mxPoint x="230" y="180" />
            </Array>
          </mxGeometry>
        </mxCell>
        <mxCell id="Gl7qeEk84zV5jjlZmkLD-27" value="" style="endArrow=classic;html=1;rounded=0;exitX=0.25;exitY=0;exitDx=0;exitDy=0;entryX=0.5;entryY=1;entryDx=0;entryDy=0;" edge="1" parent="1" source="Gl7qeEk84zV5jjlZmkLD-7" target="Gl7qeEk84zV5jjlZmkLD-4">
          <mxGeometry width="50" height="50" relative="1" as="geometry">
            <mxPoint x="370" y="420" as="sourcePoint" />
            <mxPoint x="420" y="370" as="targetPoint" />
            <Array as="points">
              <mxPoint x="330" y="240" />
              <mxPoint x="570" y="240" />
            </Array>
          </mxGeometry>
        </mxCell>
        <mxCell id="Gl7qeEk84zV5jjlZmkLD-28" value="" style="endArrow=classic;html=1;rounded=0;exitX=0;exitY=0.5;exitDx=0;exitDy=0;entryX=1.038;entryY=0.4;entryDx=0;entryDy=0;entryPerimeter=0;" edge="1" parent="1" source="Gl7qeEk84zV5jjlZmkLD-12" target="Gl7qeEk84zV5jjlZmkLD-7">
          <mxGeometry width="50" height="50" relative="1" as="geometry">
            <mxPoint x="370" y="420" as="sourcePoint" />
            <mxPoint x="420" y="370" as="targetPoint" />
          </mxGeometry>
        </mxCell>
        <mxCell id="Gl7qeEk84zV5jjlZmkLD-30" value="" style="endArrow=classic;html=1;rounded=0;exitX=1;exitY=0.75;exitDx=0;exitDy=0;entryX=0.25;entryY=1;entryDx=0;entryDy=0;" edge="1" parent="1" source="Gl7qeEk84zV5jjlZmkLD-8" target="Gl7qeEk84zV5jjlZmkLD-12">
          <mxGeometry width="50" height="50" relative="1" as="geometry">
            <mxPoint x="370" y="420" as="sourcePoint" />
            <mxPoint x="420" y="370" as="targetPoint" />
            <Array as="points">
              <mxPoint x="640" y="620" />
            </Array>
          </mxGeometry>
        </mxCell>
        <mxCell id="Gl7qeEk84zV5jjlZmkLD-31" value="" style="endArrow=classic;html=1;rounded=0;exitX=1;exitY=0.5;exitDx=0;exitDy=0;entryX=1;entryY=1;entryDx=0;entryDy=0;" edge="1" parent="1" source="Gl7qeEk84zV5jjlZmkLD-4" target="Gl7qeEk84zV5jjlZmkLD-8">
          <mxGeometry width="50" height="50" relative="1" as="geometry">
            <mxPoint x="370" y="420" as="sourcePoint" />
            <mxPoint x="420" y="370" as="targetPoint" />
            <Array as="points">
              <mxPoint x="740" y="170" />
              <mxPoint x="740" y="640" />
            </Array>
          </mxGeometry>
        </mxCell>
        <mxCell id="Gl7qeEk84zV5jjlZmkLD-32" value="" style="endArrow=classic;html=1;rounded=0;exitX=0;exitY=0.25;exitDx=0;exitDy=0;entryX=1;entryY=0;entryDx=0;entryDy=0;" edge="1" parent="1" source="Gl7qeEk84zV5jjlZmkLD-12" target="Gl7qeEk84zV5jjlZmkLD-8">
          <mxGeometry width="50" height="50" relative="1" as="geometry">
            <mxPoint x="370" y="420" as="sourcePoint" />
            <mxPoint x="420" y="370" as="targetPoint" />
            <Array as="points">
              <mxPoint x="400" y="440" />
            </Array>
          </mxGeometry>
        </mxCell>
        <mxCell id="Gl7qeEk84zV5jjlZmkLD-33" value="" style="endArrow=classic;html=1;rounded=0;exitX=0.5;exitY=0;exitDx=0;exitDy=0;entryX=1;entryY=0;entryDx=0;entryDy=0;" edge="1" parent="1" source="Gl7qeEk84zV5jjlZmkLD-12" target="Gl7qeEk84zV5jjlZmkLD-7">
          <mxGeometry width="50" height="50" relative="1" as="geometry">
            <mxPoint x="370" y="420" as="sourcePoint" />
            <mxPoint x="420" y="370" as="targetPoint" />
            <Array as="points">
              <mxPoint x="650" y="280" />
              <mxPoint x="390" y="280" />
            </Array>
          </mxGeometry>
        </mxCell>
        <mxCell id="Gl7qeEk84zV5jjlZmkLD-37" value="" style="endArrow=classic;html=1;rounded=0;exitX=0;exitY=0.5;exitDx=0;exitDy=0;entryX=0.75;entryY=1;entryDx=0;entryDy=0;" edge="1" parent="1" source="Gl7qeEk84zV5jjlZmkLD-4" target="Gl7qeEk84zV5jjlZmkLD-2">
          <mxGeometry width="50" height="50" relative="1" as="geometry">
            <mxPoint x="500" y="160" as="sourcePoint" />
            <mxPoint x="460" y="150" as="targetPoint" />
            <Array as="points">
              <mxPoint x="330" y="160" />
            </Array>
          </mxGeometry>
        </mxCell>
        <mxCell id="Gl7qeEk84zV5jjlZmkLD-38" value="" style="endArrow=classic;html=1;rounded=0;exitX=0.25;exitY=0;exitDx=0;exitDy=0;entryX=0.25;entryY=1;entryDx=0;entryDy=0;" edge="1" parent="1" source="Gl7qeEk84zV5jjlZmkLD-5" target="Gl7qeEk84zV5jjlZmkLD-2">
          <mxGeometry width="50" height="50" relative="1" as="geometry">
            <mxPoint x="370" y="420" as="sourcePoint" />
            <mxPoint x="420" y="370" as="targetPoint" />
            <Array as="points">
              <mxPoint x="60" y="160" />
              <mxPoint x="290" y="160" />
            </Array>
          </mxGeometry>
        </mxCell>
        <mxCell id="Gl7qeEk84zV5jjlZmkLD-39" value="" style="endArrow=classic;html=1;rounded=0;exitX=1;exitY=0.75;exitDx=0;exitDy=0;entryX=1;entryY=0.25;entryDx=0;entryDy=0;" edge="1" parent="1" source="Gl7qeEk84zV5jjlZmkLD-12" target="Gl7qeEk84zV5jjlZmkLD-2">
          <mxGeometry width="50" height="50" relative="1" as="geometry">
            <mxPoint x="370" y="420" as="sourcePoint" />
            <mxPoint x="420" y="370" as="targetPoint" />
            <Array as="points">
              <mxPoint x="780" y="480" />
              <mxPoint x="780" y="40" />
            </Array>
          </mxGeometry>
        </mxCell>
        <mxCell id="Gl7qeEk84zV5jjlZmkLD-40" value="Thông tin hóa đơn" style="text;html=1;align=center;verticalAlign=middle;resizable=0;points=[];autosize=1;strokeColor=none;fillColor=none;" vertex="1" parent="1">
          <mxGeometry x="120" y="68" width="120" height="30" as="geometry" />
        </mxCell>
        <mxCell id="Gl7qeEk84zV5jjlZmkLD-41" value="Thông tin sản phẩm" style="text;html=1;align=center;verticalAlign=middle;resizable=0;points=[];autosize=1;strokeColor=none;fillColor=none;" vertex="1" parent="1">
          <mxGeometry x="395" y="18" width="130" height="30" as="geometry" />
        </mxCell>
        <mxCell id="Gl7qeEk84zV5jjlZmkLD-42" value="Yêu cầu thông tin sản phẩm" style="text;html=1;align=center;verticalAlign=middle;resizable=0;points=[];autosize=1;strokeColor=none;fillColor=none;" vertex="1" parent="1">
          <mxGeometry x="400" y="55" width="170" height="30" as="geometry" />
        </mxCell>
        <mxCell id="Gl7qeEk84zV5jjlZmkLD-43" value="Tìm kiếm thông tin sp" style="text;html=1;align=center;verticalAlign=middle;resizable=0;points=[];autosize=1;strokeColor=none;fillColor=none;" vertex="1" parent="1">
          <mxGeometry x="370" y="128" width="140" height="30" as="geometry" />
        </mxCell>
        <mxCell id="Gl7qeEk84zV5jjlZmkLD-44" value="Tìm kiếm chọn sản phẩm" style="text;html=1;align=center;verticalAlign=middle;resizable=0;points=[];autosize=1;strokeColor=none;fillColor=none;" vertex="1" parent="1">
          <mxGeometry x="70" y="118" width="160" height="30" as="geometry" />
        </mxCell>
        <mxCell id="Gl7qeEk84zV5jjlZmkLD-45" value="" style="endArrow=classic;html=1;rounded=0;exitX=0;exitY=0;exitDx=0;exitDy=0;entryX=0.75;entryY=0;entryDx=0;entryDy=0;" edge="1" parent="1" source="Gl7qeEk84zV5jjlZmkLD-7" target="Gl7qeEk84zV5jjlZmkLD-5">
          <mxGeometry width="50" height="50" relative="1" as="geometry">
            <mxPoint x="220" y="420" as="sourcePoint" />
            <mxPoint x="270" y="370" as="targetPoint" />
            <Array as="points">
              <mxPoint x="300" y="200" />
              <mxPoint x="100" y="200" />
            </Array>
          </mxGeometry>
        </mxCell>
        <mxCell id="Gl7qeEk84zV5jjlZmkLD-46" value="Lưu thông tin sản phẩm" style="text;html=1;align=center;verticalAlign=middle;resizable=0;points=[];autosize=1;strokeColor=none;fillColor=none;" vertex="1" parent="1">
          <mxGeometry x="385" y="208" width="150" height="30" as="geometry" />
        </mxCell>
        <mxCell id="Gl7qeEk84zV5jjlZmkLD-47" value="Thông tin hóa đơn" style="text;html=1;align=center;verticalAlign=middle;resizable=0;points=[];autosize=1;strokeColor=none;fillColor=none;" vertex="1" parent="1">
          <mxGeometry x="200" y="540" width="120" height="30" as="geometry" />
        </mxCell>
        <mxCell id="Gl7qeEk84zV5jjlZmkLD-48" value="Thông tin sản phẩm" style="text;html=1;align=center;verticalAlign=middle;resizable=0;points=[];autosize=1;strokeColor=none;fillColor=none;" vertex="1" parent="1">
          <mxGeometry x="90" y="598" width="130" height="30" as="geometry" />
        </mxCell>
        <mxCell id="Gl7qeEk84zV5jjlZmkLD-49" value="Đăng nhập mua" style="text;html=1;align=center;verticalAlign=middle;resizable=0;points=[];autosize=1;strokeColor=none;fillColor=none;" vertex="1" parent="1">
          <mxGeometry x="115" y="668" width="110" height="30" as="geometry" />
        </mxCell>
        <mxCell id="Gl7qeEk84zV5jjlZmkLD-50" value="Phân quyền" style="text;html=1;align=center;verticalAlign=middle;resizable=0;points=[];autosize=1;strokeColor=none;fillColor=none;" vertex="1" parent="1">
          <mxGeometry x="65" y="718" width="90" height="30" as="geometry" />
        </mxCell>
        <mxCell id="Gl7qeEk84zV5jjlZmkLD-51" value="Lưu thông tin tài khoản" style="text;html=1;align=center;verticalAlign=middle;resizable=0;points=[];autosize=1;strokeColor=none;fillColor=none;" vertex="1" parent="1">
          <mxGeometry x="445" y="760" width="150" height="30" as="geometry" />
        </mxCell>
        <mxCell id="Gl7qeEk84zV5jjlZmkLD-52" value="Đăng nhập thông tin tk" style="text;html=1;align=center;verticalAlign=middle;resizable=0;points=[];autosize=1;strokeColor=none;fillColor=none;" vertex="1" parent="1">
          <mxGeometry x="450" y="700" width="140" height="30" as="geometry" />
        </mxCell>
        <mxCell id="Gl7qeEk84zV5jjlZmkLD-53" value="Phân quyền" style="text;html=1;align=center;verticalAlign=middle;resizable=0;points=[];autosize=1;strokeColor=none;fillColor=none;" vertex="1" parent="1">
          <mxGeometry x="455" y="668" width="90" height="30" as="geometry" />
        </mxCell>
        <mxCell id="Gl7qeEk84zV5jjlZmkLD-54" value="Thông tin danh mục sản phẩm" style="text;html=1;align=center;verticalAlign=middle;resizable=0;points=[];autosize=1;strokeColor=none;fillColor=none;rotation=0;" vertex="1" parent="1">
          <mxGeometry x="470" y="620" width="190" height="30" as="geometry" />
        </mxCell>
        <mxCell id="Gl7qeEk84zV5jjlZmkLD-56" value="Thông tin đơn hàng" style="text;html=1;align=center;verticalAlign=middle;resizable=0;points=[];autosize=1;strokeColor=none;fillColor=none;" vertex="1" parent="1">
          <mxGeometry x="435" y="410" width="130" height="30" as="geometry" />
        </mxCell>
        <mxCell id="Gl7qeEk84zV5jjlZmkLD-57" value="Thông tin đơn hàng" style="text;html=1;align=center;verticalAlign=middle;resizable=0;points=[];autosize=1;strokeColor=none;fillColor=none;" vertex="1" parent="1">
          <mxGeometry x="420" y="440" width="130" height="30" as="geometry" />
        </mxCell>
        <mxCell id="Gl7qeEk84zV5jjlZmkLD-58" value="Báo cáo thống kê" style="text;html=1;align=center;verticalAlign=middle;resizable=0;points=[];autosize=1;strokeColor=none;fillColor=none;" vertex="1" parent="1">
          <mxGeometry x="450" y="598" width="120" height="30" as="geometry" />
        </mxCell>
        <mxCell id="Gl7qeEk84zV5jjlZmkLD-59" value="Thông tin yêu cầu thống kê" style="text;html=1;align=center;verticalAlign=middle;resizable=0;points=[];autosize=1;strokeColor=none;fillColor=none;" vertex="1" parent="1">
          <mxGeometry x="450" y="568" width="170" height="30" as="geometry" />
        </mxCell>
        <mxCell id="Gl7qeEk84zV5jjlZmkLD-60" value="Yêu cầu đặt hàng&lt;br&gt;yêu cầu giao hàng&lt;br&gt;yêu cầu nhận hàng&lt;br&gt;thanh toán&lt;br&gt;lưu hóa đơn" style="text;html=1;align=center;verticalAlign=middle;resizable=0;points=[];autosize=1;strokeColor=none;fillColor=none;" vertex="1" parent="1">
          <mxGeometry x="130" y="370" width="130" height="90" as="geometry" />
        </mxCell>
        <mxCell id="Gl7qeEk84zV5jjlZmkLD-61" value="Hiển thị thông tin sản phẩm" style="text;html=1;align=center;verticalAlign=middle;resizable=0;points=[];autosize=1;strokeColor=none;fillColor=none;" vertex="1" parent="1">
          <mxGeometry x="55" y="170" width="170" height="30" as="geometry" />
        </mxCell>
        <mxCell id="Gl7qeEk84zV5jjlZmkLD-62" value="Lưu thông tin sản phẩm" style="text;html=1;align=center;verticalAlign=middle;resizable=0;points=[];autosize=1;strokeColor=none;fillColor=none;" vertex="1" parent="1">
          <mxGeometry x="220" y="178" width="150" height="30" as="geometry" />
        </mxCell>
        <mxCell id="Gl7qeEk84zV5jjlZmkLD-63" value="Cập nhật thông tin sản phẩm" style="text;html=1;align=center;verticalAlign=middle;resizable=0;points=[];autosize=1;strokeColor=none;fillColor=none;" vertex="1" parent="1">
          <mxGeometry x="395" y="245" width="180" height="30" as="geometry" />
        </mxCell>
        <mxCell id="Gl7qeEk84zV5jjlZmkLD-64" value="Xác nhận thông tin&lt;br&gt;&amp;nbsp;đặt hàng" style="text;html=1;align=center;verticalAlign=middle;resizable=0;points=[];autosize=1;strokeColor=none;fillColor=none;" vertex="1" parent="1">
          <mxGeometry x="340" y="303" width="120" height="40" as="geometry" />
        </mxCell>
        <mxCell id="Gl7qeEk84zV5jjlZmkLD-66" value="" style="endArrow=classic;html=1;rounded=0;exitX=0.5;exitY=1;exitDx=0;exitDy=0;entryX=1;entryY=0.5;entryDx=0;entryDy=0;" edge="1" parent="1" source="Gl7qeEk84zV5jjlZmkLD-12" target="Gl7qeEk84zV5jjlZmkLD-8">
          <mxGeometry width="50" height="50" relative="1" as="geometry">
            <mxPoint x="470" y="490" as="sourcePoint" />
            <mxPoint x="520" y="440" as="targetPoint" />
            <Array as="points">
              <mxPoint x="660" y="600" />
            </Array>
          </mxGeometry>
        </mxCell>
      </root>
    </mxGraphModel>
  </diagram>
</mxfile>
